<svg xmlns="http://www.w3.org/2000/svg" viewBox="0 0 160 130.01"><defs><style>.cls-1{fill:#1da1f2;}</style></defs><title>Asset 5</title><g id="Layer_2" data-name="Layer 2"><g id="Layer_1-2" data-name="Layer 1"><path class="cls-1" d="M50.32,130c60.37,0,93.4-50,93.4-93.4,0-1.42,0-2.84-.1-4.25a66.65,66.65,0,0,0,16.38-17,65.42,65.42,0,0,1-18.85,5.17A33,33,0,0,0,155.58,2.38a66,66,0,0,1-20.85,8A32.86,32.86,0,0,0,78.79,40.29,93.2,93.2,0,0,1,11.14,6,32.84,32.84,0,0,0,21.3,49.81,32.46,32.46,0,0,1,6.4,45.7v.42A32.85,32.85,0,0,0,32.74,78.3a32.89,32.89,0,0,1-14.83.56,32.88,32.88,0,0,0,30.67,22.8A65.92,65.92,0,0,1,7.81,115.74,67.94,67.94,0,0,1,0,115.26,92.83,92.83,0,0,0,50.32,130"/></g></g></svg>