<svg xmlns="http://www.w3.org/2000/svg" viewBox="0 0 160 112.73"><defs><style>.cls-1{fill:red;}.cls-2{fill:#fff;}</style></defs><title>Asset 2</title><g id="Layer_2" data-name="Layer 2"><g id="Layer_1-2" data-name="Layer 1"><path class="cls-1" d="M156.66,17.6A20.1,20.1,0,0,0,142.51,3.37C130,0,80,0,80,0S30,0,17.49,3.37A20.1,20.1,0,0,0,3.34,17.6C0,30.16,0,56.36,0,56.36S0,82.57,3.34,95.12a20.11,20.11,0,0,0,14.15,14.24C30,112.73,80,112.73,80,112.73s50,0,62.51-3.37a20.11,20.11,0,0,0,14.15-14.24C160,82.57,160,56.36,160,56.36S160,30.16,156.66,17.6Z"/><polygon class="cls-2" points="63.64 80.15 105.45 56.36 63.64 32.57 63.64 80.15"/></g></g></svg>